<svg width="146" height="133" viewBox="0 0 146 133" fill="none" xmlns="http://www.w3.org/2000/svg">
<path fill-rule="evenodd" clip-rule="evenodd" d="M146 13.284C146 7.41218 138.401 5.32361 133.374 3.94188C132.912 3.81495 132.472 3.69394 132.062 3.57657C125.784 1.78125 116.868 0 106.182 0C94.7421 0 85.3098 3.8125 78.8327 7.51713C77.8419 8.08375 76.8 8.86651 75.8583 9.57395C74.6146 10.5086 73.5462 11.3118 73 11.3118C72.4538 11.3118 71.3854 10.5086 70.1417 9.57395C69.2 8.86651 68.1581 8.08375 67.1673 7.51713C60.6902 3.8125 51.2578 0 39.8182 0C29.1322 0 20.2164 1.78125 13.9382 3.57657C13.5434 3.68942 13.1204 3.80599 12.6765 3.92833C7.67164 5.30767 0 7.42188 0 13.284V99.6297C0 101.932 1.1909 104.069 3.14743 105.28C6.26002 107.205 10.3676 105.52 14.0076 104.027C15.2775 103.505 16.4905 103.008 17.5845 102.695C22.92 101.169 30.5951 99.6297 39.8182 99.6297C48.1886 99.6297 54.4549 102.393 59.1526 105.287C60.3591 106.03 61.5788 106.978 62.8304 107.95C65.9243 110.355 69.2159 112.914 73 112.914C76.7947 112.914 80.0697 110.364 83.1583 107.961C84.4112 106.985 85.6336 106.034 86.8474 105.287C91.5453 102.393 97.8114 99.6297 106.182 99.6297C115.405 99.6297 123.08 101.169 128.416 102.695C129.56 103.022 130.802 103.547 132.092 104.092C135.676 105.607 139.624 107.277 142.852 105.28C144.809 104.069 146 101.932 146 99.6297V13.284ZM15.4795 16.9868C14.1463 17.4127 13.2727 18.6691 13.2727 20.0698V85.6756C13.2727 87.8933 15.4023 89.4894 17.5563 88.97C23.4647 87.5459 31.0434 86.3457 39.8182 86.3457C51.5187 86.3457 60.2542 90.3269 66.3636 94.1308V22.9525C65.0291 21.8915 63.07 20.4736 60.5827 19.0508C55.4463 16.1134 48.2876 13.284 39.8182 13.284C29.3001 13.284 20.7711 15.2963 15.4795 16.9868ZM106.182 86.3457C94.4812 86.3457 85.7458 90.3269 79.6364 94.1308V22.9525C80.9709 21.8915 82.93 20.4736 85.4173 19.0508C90.5538 16.1134 97.7125 13.284 106.182 13.284C116.7 13.284 125.229 15.2963 130.521 16.9868C131.854 17.4127 132.727 18.6691 132.727 20.0698V85.6756C132.727 87.8933 130.598 89.4894 128.443 88.97C122.535 87.5459 114.956 86.3457 106.182 86.3457Z" fill="#0F0F0F"/>
<path d="M7.40916 122.215C5.90927 118.84 7.40836 114.879 10.7574 113.367C13.8685 111.974 17.0893 110.802 20.3287 109.755C25.7032 108.017 33.1344 106.086 40.0504 106.086C47.8036 106.086 54.4211 110.298 59.2172 113.35C59.4634 113.506 59.7048 113.66 59.9412 113.81C65.5294 117.35 69.2881 119.479 73.272 119.479C77.2513 119.479 80.9874 117.355 86.5686 113.812C86.7978 113.667 87.0311 113.518 87.2689 113.366C92.0694 110.307 98.6912 106.086 106.494 106.086C113.447 106.086 120.877 108.016 126.248 109.756C131.072 111.319 134.651 112.864 135.57 113.271C138.933 114.77 140.674 118.771 139.129 122.227C137.634 125.576 133.642 127.062 130.329 125.578C127.678 124.399 124.939 123.399 122.181 122.505C117.219 120.897 111.36 119.479 106.494 119.479C102.779 119.479 99.2094 121.612 93.2508 125.398C88.3114 128.538 81.493 132.871 73.272 132.871C65.0457 132.871 58.2051 128.532 53.2517 125.39C47.281 121.603 43.7197 119.479 40.0504 119.479C35.2251 119.479 29.3678 120.896 24.3889 122.506C21.6149 123.403 18.8533 124.401 16.1873 125.591C12.8386 127.101 8.90878 125.59 7.40916 122.215Z" fill="#0F0F0F"/>
</svg>
