<svg width="126" height="126" viewBox="0 0 126 126" fill="none" xmlns="http://www.w3.org/2000/svg">
<path d="M63 1C97.2419 1 125 28.7584 125 63C125 97.2419 97.2419 125 63 125C28.7584 125 1 97.2419 1 63C1 28.7584 28.7584 1 63 1ZM63 12.4043C35.0568 12.4043 12.4043 35.0568 12.4043 63C12.4043 90.9435 35.0567 113.596 63 113.596C90.9435 113.596 113.596 90.9435 113.596 63C113.596 35.0567 90.9435 12.4043 63 12.4043ZM63 19.7656C66.1491 19.7656 68.702 22.3187 68.7021 25.4678V60.2246C68.7021 60.4898 68.8077 60.7441 68.9951 60.9316L93.8398 85.7773C96.0666 88.0042 96.0666 91.6131 93.8398 93.8398C91.6131 96.0666 88.0042 96.0666 85.7773 93.8398L58.9688 67.0312C57.8992 65.9617 57.2979 64.512 57.2979 63V25.4678C57.298 22.3187 59.8509 19.7656 63 19.7656Z" fill="black" stroke="#FDFCFC" stroke-width="2" stroke-linecap="round" stroke-linejoin="round"/>
</svg>
