<svg width="144" height="144" viewBox="0 0 144 144" fill="none" xmlns="http://www.w3.org/2000/svg">
<path d="M72 0C32.2726 0 0 32.2726 0 72C0 111.727 32.2726 144 72 144C111.727 144 144 111.727 144 72C144 32.2726 111.727 0 72 0ZM72 6.26087C108.344 6.26087 137.739 35.6562 137.739 72C137.739 108.344 108.344 137.739 72 137.739C35.6562 137.739 6.26087 108.344 6.26087 72C6.26087 35.6562 35.6562 6.26087 72 6.26087ZM72 28.1739C69.5093 28.1739 67.1206 29.1633 65.3593 30.9246C63.5981 32.6858 62.6087 35.0745 62.6087 37.5652C62.6087 40.0559 63.5981 42.4447 65.3593 44.2059C67.1206 45.9671 69.5093 46.9565 72 46.9565C74.4907 46.9565 76.8794 45.9671 78.6407 44.2059C80.4019 42.4447 81.3913 40.0559 81.3913 37.5652C81.3913 35.0745 80.4019 32.6858 78.6407 30.9246C76.8794 29.1633 74.4907 28.1739 72 28.1739ZM59.4783 59.4783V65.7391H62.6087H65.7391V106.435H62.6087H59.4783V112.696H62.6087H65.7391H78.2609H81.3913H84.5217V106.435H81.3913H78.2609V59.4783H75.1304H62.6087H59.4783Z" fill="white"/>
</svg>
