<svg width="104" height="132" viewBox="0 0 104 132" fill="none" xmlns="http://www.w3.org/2000/svg">
<path d="M93.4493 53.8621C93.4493 29.8203 74.7352 10.6207 52 10.6207C29.2648 10.6207 10.5507 29.8203 10.5507 53.8621C10.5507 65.6377 15.6633 76.661 24.1056 88.0519C31.694 98.2905 41.5396 108.288 52 119.08C62.4604 108.288 72.306 98.2905 79.8944 88.0519C88.3367 76.661 93.4493 65.6377 93.4493 53.8621ZM104 53.8621C104 68.9004 97.4314 82.1534 88.352 94.4038C79.3285 106.579 67.2987 118.425 55.7887 130.385C54.795 131.417 53.428 132 52 132C50.572 132 49.205 131.417 48.2113 130.385C36.7013 118.425 24.6715 106.579 15.648 94.4038C6.56856 82.1534 0 68.9004 0 53.8621C5.3617e-07 24.2751 23.1246 0 52 0C80.8755 1.2085e-06 104 24.2751 104 53.8621Z" fill="black"/>
<path d="M60.2899 52.3448C60.2899 47.736 56.5785 44 52 44C47.4215 44 43.7101 47.736 43.7101 52.3448C43.7101 56.9538 47.4214 60.6897 52 60.6897C56.5786 60.6897 60.2899 56.9538 60.2899 52.3448ZM70.8406 52.3448C70.8406 62.8194 62.4056 71.3103 52 71.3103C41.5944 71.3103 33.1594 62.8194 33.1594 52.3448C33.1594 41.8705 41.5944 33.3793 52 33.3793C62.4056 33.3793 70.8406 41.8705 70.8406 52.3448Z" fill="black"/>
</svg>
