<svg width="1806" height="622" viewBox="0 0 1806 622" fill="none" xmlns="http://www.w3.org/2000/svg">
<path d="M147.985 188.004C147.985 198.518 145.308 207.364 139.953 214.54C134.598 221.716 126.89 227.224 116.83 231.063C106.77 234.734 94.7623 236.57 80.8076 236.57C76.9133 236.57 71.3153 236.486 64.0137 236.319C56.7118 235.986 47.8682 235.819 37.4834 235.819C30.3438 235.819 23.3659 235.902 16.5508 236.069C9.73579 236.069 4.21882 236.237 0 236.57V231.563C5.19218 231.23 9.08639 230.562 11.6826 229.561C14.2787 228.559 15.9826 226.557 16.7939 223.553C17.7675 220.549 18.2549 216.042 18.2549 210.034V85.8662C18.2549 79.6912 17.7675 75.1848 16.7939 72.3477C15.9826 69.3438 14.1978 67.3412 11.4395 66.3398C8.84323 65.1716 5.03008 64.5038 0 64.3369V59.3301C4.21882 59.497 9.73579 59.6642 16.5508 59.8311C23.3658 59.9979 30.1811 60.0811 36.9961 60.0811C44.7847 60.0811 52.3301 59.9979 59.6318 59.8311C66.9337 59.6642 72.1269 59.5811 75.21 59.5811C95.3306 59.5811 110.34 63.2525 120.238 70.5957C130.298 77.9389 135.328 87.3683 135.328 98.8838C135.328 104.725 133.624 110.65 130.217 116.658C126.809 122.666 121.536 128.007 114.396 132.68C107.257 137.353 98.0078 140.774 86.6494 142.943V143.444C101.902 144.613 113.991 147.45 122.915 151.956C131.84 156.462 138.249 161.886 142.144 168.228C146.038 174.569 147.985 181.161 147.985 188.004ZM268.498 529.225C268.498 547.777 263.64 563.384 253.925 576.047C244.209 588.709 230.225 598.426 211.972 605.199C193.719 611.678 171.933 614.917 146.614 614.917C139.549 614.917 129.391 614.77 116.143 614.476C102.894 613.887 86.8495 613.592 68.0078 613.592C55.054 613.592 42.3943 613.74 30.0293 614.034C17.6643 614.034 7.65455 614.328 0 614.917V606.083C9.42095 605.494 16.4868 604.317 21.1973 602.55C25.9077 600.783 28.9987 597.249 30.4707 591.948C32.2371 586.648 33.1201 578.697 33.1201 568.096V349.006C33.1201 338.11 32.2371 330.159 30.4707 325.153C28.9987 319.853 25.7607 316.319 20.7559 314.552C16.0454 312.49 9.12657 311.313 0 311.019V302.184C7.65455 302.478 17.6643 302.773 30.0293 303.067C42.3942 303.362 54.7591 303.509 67.124 303.509C81.2555 303.509 94.9461 303.362 108.194 303.067C121.442 302.773 130.863 302.626 136.457 302.626C172.963 302.626 200.196 309.105 218.154 322.062C236.407 335.018 245.534 351.656 245.534 371.975C245.534 382.281 242.443 392.736 236.261 403.337C230.078 413.938 220.509 423.361 207.556 431.606C194.602 439.852 177.821 445.889 157.213 449.717V450.6C184.887 452.661 206.82 457.667 223.013 465.618C239.205 473.569 250.834 483.139 257.899 494.329C264.965 505.519 268.498 517.151 268.498 529.225ZM95.8984 101.638C95.8984 89.2877 94.0319 80.0246 90.2998 73.8496C86.5677 67.508 80.4825 64.3369 72.0449 64.3369C65.7169 64.337 61.579 65.7557 59.6318 68.5928C57.847 71.43 56.9551 77.1879 56.9551 85.8662V142.442H67.4209C75.0472 142.442 80.8887 140.607 84.9453 136.936C89.0019 133.097 91.8412 128.09 93.4639 121.915C95.0865 115.573 95.8984 108.814 95.8984 101.638ZM107.581 187.003C107.581 174.152 104.417 164.222 98.0889 157.213C91.9229 150.203 81.6191 146.698 67.1777 146.698H56.9551V210.034C56.9551 215.875 57.3606 220.298 58.1719 223.302C59.1455 226.306 60.7683 228.309 63.04 229.311C65.474 230.312 69.0436 230.812 73.749 230.813C85.4321 230.813 93.9509 227.057 99.3057 219.547C104.823 211.87 107.581 201.022 107.581 187.003ZM173.994 376.834C173.994 355.043 170.608 338.699 163.837 327.804C157.066 316.614 146.025 311.019 130.716 311.019C119.234 311.019 111.727 313.521 108.194 318.527C104.956 323.533 103.336 333.693 103.336 349.006V448.833H122.325C136.162 448.833 146.761 445.594 154.121 439.115C161.481 432.342 166.633 423.508 169.577 412.612C172.521 401.422 173.994 389.496 173.994 376.834ZM195.191 527.458C195.191 504.783 189.45 487.263 177.968 474.895C166.78 462.527 148.086 456.342 121.884 456.342H103.336V568.096C103.336 578.402 104.072 586.206 105.544 591.507C107.31 596.807 110.255 600.341 114.377 602.107C118.793 603.874 125.27 604.758 133.808 604.758C155.005 604.758 170.46 598.132 180.176 584.881C190.186 571.335 195.191 552.194 195.191 527.458ZM315.979 236.57C311.111 236.237 305.35 236.069 298.697 236.069C292.207 235.902 285.634 235.819 278.981 235.819C271.518 235.819 264.459 235.902 257.807 236.069C251.154 236.069 245.88 236.237 241.985 236.57V231.563C250.261 231.23 255.453 229.811 257.562 227.308C259.834 224.637 259.348 219.047 256.103 210.535L241.51 169.479H188.557L182.11 186.753C178.541 195.932 176.349 203.442 175.538 209.283C174.889 215.124 175.295 219.631 176.755 222.802C178.378 225.973 180.893 228.225 184.301 229.561C187.871 230.729 192.089 231.397 196.957 231.563V236.57C191.602 236.237 186.491 236.069 181.623 236.069C176.755 235.902 171.806 235.819 166.776 235.819C163.207 235.819 159.799 235.902 156.554 236.069C153.471 236.069 150.712 236.237 148.278 236.57V231.563C151.686 230.896 155.174 228.642 158.744 224.804C162.314 220.965 165.802 214.456 169.21 205.277L224.704 58.8291C227.3 58.996 230.059 59.0801 232.979 59.0801C236.063 59.0801 238.903 58.996 241.499 58.8291L300.645 215.542C302.916 221.55 305.431 225.722 308.189 228.059C311.11 230.228 313.707 231.397 315.979 231.563V236.57ZM215.679 96.8057L190.426 164.473H239.73L215.679 96.8057ZM612.897 455.9C612.897 488.882 606.274 517.741 593.025 542.477C579.777 567.212 561.23 586.5 537.383 600.341C513.83 614.181 486.892 621.102 456.568 621.102C425.361 621.102 397.981 614.77 374.429 602.107C351.171 589.445 333.065 571.187 320.111 547.335C307.158 523.482 300.681 494.771 300.681 461.201C300.681 428.22 307.304 399.361 320.553 374.625C334.095 349.889 352.496 330.601 375.754 316.761C399.306 302.92 426.392 296 457.01 296C488.217 296 515.449 302.332 538.707 314.994C562.26 327.657 580.513 345.914 593.467 369.767C606.421 393.325 612.897 422.036 612.897 455.9ZM465.178 108.897C465.178 114.906 464.042 121.247 461.771 127.923C459.499 134.432 455.605 140.524 450.088 146.198C444.733 151.706 437.35 156.211 427.938 159.716C418.527 163.221 406.682 164.974 392.402 164.974H379.503V208.532C379.503 215.041 380.152 219.881 381.45 223.052C382.748 226.223 385.263 228.309 388.995 229.311C392.727 230.312 398.244 230.896 405.546 231.063V236.57C400.516 236.403 394.025 236.236 386.074 236.069C378.123 235.902 369.767 235.819 361.005 235.819C354.028 235.819 347.212 235.902 340.56 236.069C333.907 236.236 327.903 236.403 322.548 236.57V231.563C327.74 231.23 331.634 230.562 334.23 229.561C336.827 228.559 338.53 226.557 339.342 223.553C340.315 220.549 340.803 216.042 340.803 210.034V85.8662C340.803 79.6912 340.315 75.1848 339.342 72.3477C338.53 69.3438 336.746 67.3412 333.987 66.3398C331.391 65.1716 327.578 64.5038 322.548 64.3369V59.3301C326.604 59.497 332.04 59.6642 338.855 59.8311C345.833 59.9979 352.729 60.0811 359.544 60.0811C367.333 60.0811 374.878 59.9979 382.18 59.8311C389.482 59.6642 394.675 59.5811 397.758 59.5811C420.312 59.5811 437.188 64.1706 448.384 73.3496C459.58 82.5287 465.178 94.3779 465.178 108.897ZM539.591 457.667C539.591 426.158 535.763 398.919 528.108 375.95C520.748 352.981 510.592 335.312 497.638 322.944C484.978 310.282 470.847 303.951 455.243 303.951C438.756 303.951 424.331 310.577 411.966 323.828C399.895 337.08 390.473 355.337 383.702 378.601C377.225 401.864 373.987 428.808 373.987 459.434C373.987 490.648 377.667 517.888 385.027 541.151C392.682 564.12 402.839 581.936 415.498 594.599C428.452 606.967 442.731 613.15 458.335 613.15C474.822 613.15 489.1 606.525 501.171 593.273C513.536 580.022 522.957 561.764 529.434 538.501C536.205 514.943 539.591 487.998 539.591 457.667ZM424.774 111.651C424.774 95.7966 422.502 83.9465 417.959 76.1025C413.416 68.2589 405.627 64.3369 394.593 64.3369C388.265 64.337 384.127 65.7557 382.18 68.5928C380.395 71.43 379.503 77.1879 379.503 85.8662V159.967H389.969C399.542 159.967 406.763 157.713 411.631 153.207C416.661 148.701 420.069 142.777 421.854 135.434C423.801 128.09 424.774 120.163 424.774 111.651ZM733.582 64.3369C728.552 64.5038 724.657 65.1716 721.898 66.3398C719.302 67.3412 717.517 69.3438 716.544 72.3477C715.733 75.1848 715.327 79.6912 715.327 85.8662V210.034C715.327 216.042 715.733 220.549 716.544 223.553C717.517 226.557 719.302 228.559 721.898 229.561C724.657 230.562 728.552 231.23 733.582 231.563V236.57C729.688 236.237 724.414 236.069 717.761 236.069C711.27 235.902 704.212 235.819 696.586 235.819C688.797 235.819 680.846 235.986 672.732 236.319C664.782 236.486 657.399 236.57 650.584 236.57C646.69 236.57 642.146 236.486 636.953 236.319C631.923 236.152 626.731 236.069 621.376 236.069C616.021 235.902 610.991 235.819 606.285 235.819C598.821 235.819 590.951 235.986 582.676 236.319C574.563 236.486 567.18 236.57 560.527 236.57C553.712 236.57 546.248 236.486 538.135 236.319C530.022 235.986 522.07 235.819 514.281 235.819C506.655 235.819 499.515 235.902 492.862 236.069C486.372 236.069 481.179 236.237 477.285 236.57V231.563C482.315 231.23 486.128 230.562 488.725 229.561C491.483 228.559 493.269 226.557 494.08 223.553C495.054 220.549 495.54 216.042 495.54 210.034V85.8662C495.54 79.6912 495.054 75.1848 494.08 72.3477C493.269 69.3437 491.483 67.3412 488.725 66.3398C486.128 65.1717 482.315 64.5038 477.285 64.3369V59.3301C481.504 59.497 486.94 59.6642 493.593 59.8311C500.408 59.9979 507.791 60.0811 515.742 60.0811C522.07 60.0811 528.317 59.9979 534.483 59.8311C540.649 59.6642 545.842 59.497 550.061 59.3301V64.3369C545.517 64.5038 542.11 65.1716 539.838 66.3398C537.729 67.3412 536.268 69.3439 535.457 72.3477C534.646 75.1848 534.24 79.6912 534.24 85.8662V210.034C534.24 216.042 534.727 220.632 535.7 223.803C536.674 226.807 538.54 228.893 541.299 230.062C544.22 231.063 548.438 231.563 553.955 231.563H566.368C571.885 231.563 576.023 231.063 578.781 230.062C581.702 228.893 583.649 226.807 584.623 223.803C585.597 220.632 586.083 216.042 586.083 210.034V85.8662C586.083 79.6912 585.678 75.1848 584.866 72.3477C584.217 69.3438 582.757 67.3412 580.485 66.3398C578.214 65.1716 574.806 64.5038 570.263 64.3369V59.3301C574.481 59.497 579.674 59.6642 585.84 59.8311C592.168 59.9979 598.416 60.0811 604.582 60.0811C611.884 60.0811 618.699 59.9979 625.027 59.8311C631.518 59.6642 636.71 59.497 640.604 59.3301V64.3369C636.223 64.5038 632.816 65.1716 630.382 66.3398C628.11 67.3412 626.568 69.3437 625.757 72.3477C625.108 75.1848 624.783 79.6912 624.783 85.8662V210.034C624.783 216.042 625.351 220.549 626.487 223.553C627.623 226.557 629.571 228.642 632.329 229.811C635.25 230.812 639.307 231.397 644.499 231.563H656.912C662.429 231.563 666.567 231.063 669.325 230.062C672.246 228.893 674.193 226.807 675.167 223.803C676.141 220.632 676.627 216.042 676.627 210.034V85.8662C676.627 79.6912 676.221 75.1848 675.41 72.3477C674.761 69.3438 673.301 67.3412 671.029 66.3398C668.758 65.1716 665.35 64.5038 660.807 64.3369V59.3301C665.025 59.497 670.218 59.6642 676.384 59.8311C682.712 59.9979 688.959 60.0811 695.125 60.0811C702.914 60.0811 710.216 59.9979 717.031 59.8311C724.008 59.6642 729.525 59.497 733.582 59.3301V64.3369ZM942.849 595.481C934.9 604.316 926.362 610.794 917.235 614.917C908.109 619.04 897.068 621.102 884.114 621.102C868.217 621.102 855.116 617.862 844.812 611.384C834.507 604.611 827.736 591.948 824.497 573.396L812.573 505.814C810.512 494.035 807.421 484.464 803.3 477.103C799.473 469.741 793.585 464.292 785.636 460.759C777.687 457.225 766.646 455.459 752.515 455.459H746.774V568.096C746.774 578.697 747.51 586.648 748.982 591.948C750.749 597.249 753.987 600.783 758.697 602.55C763.408 604.317 770.474 605.494 779.895 606.083V614.917C771.946 614.328 761.936 614.034 749.865 614.034C737.795 613.74 725.577 613.592 713.212 613.592C699.08 613.592 685.685 613.74 673.025 614.034C660.66 614.034 650.798 614.328 643.438 614.917V606.083C652.858 605.494 659.924 604.317 664.635 602.55C669.345 600.783 672.436 597.249 673.908 591.948C675.675 586.648 676.559 578.697 676.559 568.096V349.006C676.559 338.11 675.675 330.159 673.908 325.153C672.436 319.853 669.198 316.319 664.193 314.552C659.483 312.49 652.564 311.313 643.438 311.019V302.184C650.798 302.478 660.66 302.773 673.025 303.067C685.685 303.362 699.08 303.509 713.212 303.509C725.577 303.509 737.795 303.362 749.865 303.067C761.936 302.773 771.946 302.478 779.895 302.184V311.019C770.474 311.313 763.261 312.49 758.256 314.552C753.545 316.319 750.454 319.853 748.982 325.153C747.51 330.159 746.774 338.11 746.774 349.006V447.886C758.737 447.33 769.63 443.966 779.453 437.79C789.757 431.017 800.797 420.71 812.573 406.87L838.629 375.509C850.111 362.257 856.735 350.919 858.501 341.496C860.267 331.779 858.353 324.269 852.76 318.969C847.166 313.668 838.481 310.871 826.705 310.576V302.184C833.771 302.478 840.69 302.773 847.461 303.067C854.232 303.067 861.151 303.214 868.217 303.509H891.622C900.454 303.509 908.256 303.362 915.027 303.067C922.093 302.773 928.275 302.478 933.574 302.184V310.576C923.859 312.637 913.702 316.76 903.104 322.944C892.505 329.128 881.17 339.141 869.1 352.981L787.29 448.861C799.573 449.719 810.798 451.182 820.964 453.25C838.628 456.489 852.76 462.526 863.358 471.36C874.251 479.9 881.612 492.563 885.439 509.348L898.246 568.537C900.601 580.61 903.25 589.003 906.194 593.715C909.138 598.132 913.555 600.341 919.443 600.341C922.976 600.046 925.92 599.163 928.275 597.69C930.925 595.924 933.722 593.421 936.666 590.182L942.849 595.481ZM905.93 236.57C901.062 236.237 895.301 236.069 888.648 236.069C882.158 235.902 875.585 235.819 868.933 235.819C861.469 235.819 854.41 235.902 847.758 236.069C841.105 236.069 835.831 236.237 831.937 236.57V231.563C840.212 231.23 845.404 229.811 847.514 227.308C849.785 224.637 849.299 219.047 846.054 210.535L831.461 169.479H778.508L772.062 186.753C768.492 195.932 766.301 203.442 765.489 209.283C764.84 215.124 765.246 219.631 766.706 222.802C768.329 225.973 770.844 228.225 774.252 229.561C777.822 230.729 782.04 231.397 786.908 231.563V236.57C781.554 236.237 776.442 236.069 771.574 236.069C766.706 235.902 761.758 235.819 756.728 235.819C753.158 235.819 749.75 235.902 746.505 236.069C743.422 236.069 740.663 236.237 738.229 236.57V231.563C741.637 230.896 745.126 228.642 748.695 224.804C752.265 220.965 755.754 214.456 759.161 205.277L814.655 58.8291C817.251 58.996 820.01 59.0801 822.931 59.0801C826.014 59.0801 828.854 58.996 831.45 58.8291L890.596 215.542C892.867 221.55 895.382 225.722 898.141 228.059C901.061 230.228 903.658 231.397 905.93 231.563V236.57ZM805.63 96.8057L780.377 164.473H829.682L805.63 96.8057ZM1060.48 188.004C1060.48 198.518 1057.81 207.364 1052.45 214.54C1047.1 221.716 1039.39 227.224 1029.33 231.062C1019.27 234.734 1007.26 236.57 993.307 236.57C989.412 236.57 983.814 236.486 976.513 236.319C969.211 235.986 960.367 235.819 949.982 235.819C942.843 235.819 935.865 235.902 929.05 236.069C922.235 236.069 916.718 236.237 912.499 236.57V231.563C917.691 231.23 921.586 230.562 924.183 229.561C926.779 228.559 928.483 226.557 929.294 223.553C930.268 220.549 930.754 216.042 930.754 210.034V85.8662C930.754 79.6912 930.268 75.1848 929.294 72.3477C928.483 69.3437 926.697 67.3412 923.938 66.3398C921.342 65.1717 917.529 64.5038 912.499 64.3369V59.3301C916.718 59.497 922.235 59.6642 929.05 59.8311C935.865 59.9979 942.68 60.0811 949.495 60.0811C957.284 60.0811 964.829 59.9979 972.131 59.8311C979.433 59.6642 984.626 59.5811 987.709 59.5811C1007.83 59.5811 1022.84 63.2525 1032.74 70.5957C1042.8 77.9389 1047.83 87.3683 1047.83 98.8838C1047.83 104.725 1046.12 110.65 1042.72 116.658C1039.31 122.666 1034.03 128.007 1026.9 132.68C1019.76 137.353 1010.51 140.774 999.148 142.943V143.444C1014.4 144.613 1026.49 147.45 1035.41 151.956C1044.34 156.462 1050.75 161.886 1054.64 168.228C1058.54 174.569 1060.48 181.161 1060.48 188.004ZM1199.73 530.992C1199.73 545.421 1195.76 558.378 1187.81 569.862C1180.16 581.052 1169.7 590.476 1156.46 598.132C1143.5 605.494 1128.78 611.089 1112.29 614.917C1095.81 619.04 1078.88 621.102 1061.51 621.102C1046.5 621.102 1031.92 619.481 1017.79 616.242C1003.95 613.003 992.03 607.703 982.021 600.341C975.544 595.629 969.803 589.887 964.798 583.114C960.087 576.047 957.731 568.243 957.731 559.703C957.731 548.513 961.412 539.679 968.772 533.2C976.133 526.722 984.964 523.482 995.269 523.482C1005.57 523.482 1013.96 526.427 1020.44 532.316C1026.92 538.206 1030.16 547.04 1030.16 558.819C1030.16 567.948 1027.06 575.752 1020.88 582.23C1014.99 588.709 1006.75 593.274 996.151 595.924C1001.75 600.341 1009.55 604.022 1019.56 606.967C1029.57 609.912 1041.2 611.384 1054.44 611.384C1078.88 611.384 1097.87 604.61 1111.41 591.064C1125.25 577.224 1132.17 557.494 1132.17 531.875C1132.17 518.329 1130.11 505.667 1125.98 493.888C1121.86 482.109 1115.39 472.539 1106.55 465.177C1097.72 457.815 1086.53 453.839 1072.99 453.25C1070.05 454.722 1066.96 456.048 1063.72 457.226C1060.77 458.403 1057.54 458.992 1054 458.992C1051.65 458.992 1049.44 458.403 1047.38 457.226C1045.61 456.048 1044.73 454.133 1044.73 451.483C1044.73 446.772 1048.11 444.416 1054.89 444.416C1057.83 444.416 1060.92 444.71 1064.16 445.299C1067.4 445.888 1070.49 446.477 1073.43 447.066C1084.33 442.649 1092.72 436.612 1098.61 428.956C1104.79 421.005 1109.06 412.024 1111.41 402.012C1113.77 392 1114.94 381.545 1114.94 370.649C1114.94 348.858 1110.68 333.104 1102.14 323.387C1093.89 313.669 1081.82 308.81 1065.93 308.81C1049.14 308.81 1035.31 313.227 1024.42 322.062C1013.52 330.601 1005.13 342.085 999.243 356.515C993.649 370.649 990.264 386.257 989.086 403.337H978.929C978.929 384.785 978.782 369.177 978.487 356.515C978.487 343.852 978.34 333.104 978.046 324.27C978.046 315.435 977.752 307.631 977.163 300.858H987.319C988.203 308.809 989.381 314.846 990.853 318.969C992.325 322.797 994.827 324.711 998.359 324.711C1000.71 324.711 1004.25 323.092 1008.96 319.853C1015.14 315.73 1021.32 311.902 1027.51 308.368C1033.69 304.54 1041.05 301.596 1049.59 299.534C1058.42 297.178 1069.31 296 1082.27 296C1102.29 296 1119.8 298.651 1134.82 303.951C1149.83 309.252 1161.61 316.908 1170.15 326.92C1178.68 336.932 1182.95 348.859 1182.95 362.699C1182.95 375.067 1179.71 386.11 1173.24 395.827C1166.76 405.25 1158.37 413.643 1148.07 421.005C1137.76 428.072 1126.57 433.962 1114.5 438.674C1102.73 443.385 1091.24 446.919 1080.06 449.274C1094.19 449.569 1108.32 451.336 1122.45 454.575C1136.58 457.814 1149.39 462.821 1160.87 469.594C1172.65 476.367 1182.07 484.906 1189.13 495.213C1196.2 505.225 1199.73 517.152 1199.73 530.992ZM1008.4 101.638C1008.4 89.2877 1006.53 80.0246 1002.8 73.8496C999.067 67.5081 992.982 64.337 984.545 64.3369C978.217 64.3369 974.078 65.7556 972.131 68.5928C970.346 71.43 969.454 77.188 969.454 85.8662V142.442H979.92C987.546 142.442 993.388 140.607 997.444 136.936C1001.5 133.097 1004.34 128.09 1005.96 121.915C1007.59 115.573 1008.4 108.814 1008.4 101.638ZM1020.08 187.003C1020.08 174.152 1016.92 164.222 1010.59 157.213C1004.42 150.203 994.118 146.698 979.677 146.698H969.454V210.034C969.454 215.875 969.86 220.298 970.671 223.302C971.644 226.306 973.267 228.309 975.539 229.311C977.973 230.312 981.543 230.812 986.248 230.812C997.931 230.812 1006.45 227.057 1011.8 219.547C1017.32 211.87 1020.08 201.022 1020.08 187.003ZM1220.12 236.57C1219.47 229.394 1218.34 224.888 1216.71 223.052C1215.25 221.216 1212.74 221.466 1209.17 223.803C1203.17 228.142 1196.76 231.981 1189.94 235.318C1183.29 238.489 1174.69 240.075 1164.14 240.075C1146.94 240.075 1131.85 236.487 1118.87 229.311C1106.05 222.134 1096.07 211.787 1088.93 198.269C1081.79 184.75 1078.22 168.478 1078.22 149.452C1078.22 130.76 1081.87 114.405 1089.17 100.386C1096.64 86.367 1106.78 75.4357 1119.6 67.5918C1132.58 59.7479 1147.51 55.8252 1164.38 55.8252C1175.09 55.8252 1183.86 57.4942 1190.67 60.832C1197.65 64.003 1203.81 67.7584 1209.17 72.0977C1212.41 74.601 1214.85 74.9345 1216.47 73.0986C1218.26 71.0959 1219.47 66.5064 1220.12 59.3301H1225.72C1225.4 65.8388 1225.15 73.7664 1224.99 83.1123C1224.83 92.2914 1224.75 104.558 1224.75 119.912H1219.15C1218.34 112.235 1217.28 105.726 1215.98 100.386C1214.69 94.8783 1212.9 90.0385 1210.63 85.8662C1208.36 81.694 1205.11 77.9384 1200.89 74.6006C1196.84 70.4284 1192.13 67.3415 1186.78 65.3389C1181.42 63.3362 1175.82 62.334 1169.98 62.334C1161.22 62.334 1153.76 64.754 1147.59 69.5938C1141.42 74.2667 1136.39 80.6924 1132.5 88.8701C1128.77 97.0479 1126.01 106.311 1124.22 116.658C1122.44 126.839 1121.55 137.436 1121.55 148.451C1121.55 159.633 1122.44 170.397 1124.22 180.744C1126.17 190.925 1129.09 200.02 1132.99 208.031C1137.04 216.042 1142.24 222.385 1148.56 227.058C1154.89 231.73 1162.36 234.066 1170.96 234.066C1176.31 234.066 1181.67 233.065 1187.02 231.062C1192.54 228.893 1197.24 225.805 1201.14 221.8C1207.46 216.793 1211.77 210.619 1214.04 203.275C1216.31 195.765 1218.01 185.834 1219.15 173.484H1224.75C1224.75 189.339 1224.83 202.19 1224.99 212.037C1225.15 221.717 1225.4 229.895 1225.72 236.57H1220.12ZM1504.38 614.917C1495.55 614.328 1485.1 614.034 1473.03 614.034C1461.25 613.74 1449.33 613.592 1437.26 613.592C1423.72 613.592 1410.91 613.74 1398.84 614.034C1386.77 614.034 1377.2 614.328 1370.14 614.917V606.083C1385.15 605.494 1394.57 602.991 1398.4 598.574C1402.52 593.863 1401.64 583.998 1395.75 568.979L1369.27 496.538H1273.2L1261.5 527.017C1255.02 543.213 1251.05 556.464 1249.58 566.771C1248.4 577.077 1249.13 585.028 1251.78 590.623C1254.73 596.218 1259.29 600.194 1265.47 602.55C1271.95 604.611 1279.61 605.789 1288.44 606.083V614.917C1278.72 614.328 1269.45 614.034 1260.62 614.034C1251.79 613.74 1242.81 613.592 1233.68 613.592C1227.2 613.592 1221.02 613.74 1215.13 614.034C1209.54 614.034 1204.53 614.328 1200.12 614.917V606.083C1206.3 604.905 1212.63 600.93 1219.11 594.157C1225.58 587.384 1231.91 575.899 1238.09 559.703L1338.78 301.301C1343.49 301.595 1348.5 301.742 1353.8 301.742C1359.39 301.742 1364.54 301.595 1369.25 301.301L1476.56 577.813C1480.69 588.415 1485.25 595.777 1490.25 599.899C1495.55 603.728 1500.26 605.789 1504.38 606.083V614.917ZM1412.67 225.555C1408.29 230.561 1403.58 234.234 1398.55 236.57C1393.52 238.907 1387.44 240.075 1380.3 240.075C1371.53 240.075 1364.31 238.239 1358.63 234.567C1352.95 230.729 1349.22 223.552 1347.44 213.038L1340.87 174.736C1339.73 168.061 1338.03 162.637 1335.75 158.465C1333.64 154.293 1330.4 151.205 1326.02 149.202C1321.64 147.199 1315.55 146.198 1307.76 146.198H1304.6V210.034C1304.6 216.042 1305.01 220.549 1305.82 223.553C1306.79 226.557 1308.57 228.559 1311.17 229.561C1313.77 230.562 1317.66 231.23 1322.85 231.563V236.57C1318.47 236.237 1312.96 236.069 1306.3 236.069C1299.65 235.902 1292.92 235.819 1286.1 235.819C1278.31 235.819 1270.93 235.902 1263.95 236.069C1257.14 236.069 1251.7 236.237 1247.64 236.57V231.563C1252.84 231.23 1256.73 230.562 1259.33 229.561C1261.92 228.559 1263.63 226.557 1264.44 223.553C1265.41 220.549 1265.9 216.042 1265.9 210.034V85.8662C1265.9 79.6912 1265.41 75.1848 1264.44 72.3477C1263.63 69.3437 1261.84 67.3412 1259.08 66.3398C1256.49 65.1717 1252.67 64.5038 1247.64 64.3369V59.3301C1251.7 59.497 1257.14 59.6642 1263.95 59.8311C1270.93 59.9979 1278.31 60.0811 1286.1 60.0811C1292.92 60.0811 1299.65 59.9979 1306.3 59.8311C1312.96 59.6642 1318.47 59.497 1322.85 59.3301V64.3369C1317.66 64.5038 1313.69 65.1716 1310.93 66.3398C1308.33 67.3412 1306.63 69.3437 1305.82 72.3477C1305.01 75.1848 1304.6 79.6912 1304.6 85.8662V141.906C1311.19 141.591 1317.2 139.684 1322.61 136.185C1328.29 132.346 1334.37 126.504 1340.87 118.66L1355.23 100.887C1361.55 93.3766 1365.21 86.9509 1366.18 81.6104C1367.15 76.1029 1366.1 71.8468 1363.01 68.8428C1359.93 65.8388 1355.14 64.2538 1348.65 64.0869V59.3301C1352.55 59.497 1356.36 59.6642 1360.09 59.8311C1363.83 59.8311 1367.64 59.9142 1371.53 60.0811H1384.43C1389.3 60.0811 1393.6 59.9979 1397.33 59.8311C1401.23 59.6642 1404.64 59.497 1407.56 59.3301V64.0869C1402.2 65.2552 1396.6 67.592 1390.76 71.0967C1384.92 74.6014 1378.67 80.2754 1372.02 88.1191L1326.93 142.461C1333.7 142.947 1339.89 143.774 1345.49 144.946C1355.23 146.782 1363.01 150.203 1368.86 155.21C1374.86 160.05 1378.92 167.226 1381.03 176.739L1388.08 210.284C1389.38 217.127 1390.84 221.883 1392.47 224.554C1394.09 227.057 1396.52 228.309 1399.77 228.309C1401.71 228.142 1403.34 227.641 1404.64 226.807C1406.1 225.805 1407.64 224.386 1409.26 222.551L1412.67 225.555ZM1322.4 368.308L1276.59 487.704H1366.04L1322.4 368.308ZM1606.34 64.3369C1601.15 64.5038 1597.25 65.1717 1594.66 66.3398C1592.06 67.3412 1590.27 69.3437 1589.3 72.3477C1588.49 75.1848 1588.08 79.6912 1588.08 85.8662V210.034C1588.08 216.042 1588.49 220.549 1589.3 223.553C1590.27 226.557 1592.06 228.559 1594.66 229.561C1597.25 230.562 1601.15 231.23 1606.34 231.563V236.57C1602.12 236.237 1596.6 236.069 1589.79 236.069C1582.97 235.902 1575.67 235.819 1567.88 235.819C1561.07 235.819 1554.25 235.902 1547.44 236.069C1540.78 236.069 1535.35 236.237 1531.13 236.57V231.563C1536.16 231.23 1539.97 230.562 1542.57 229.561C1545.17 228.559 1546.95 226.557 1547.92 223.553C1548.9 220.549 1549.38 216.042 1549.38 210.034V92.7568L1480.06 213.366C1480.19 217.737 1480.58 221.132 1481.23 223.553C1482.21 226.557 1483.99 228.559 1486.59 229.561C1489.18 230.562 1493.08 231.23 1498.27 231.563V236.57C1493.89 236.237 1488.37 236.069 1481.72 236.069C1475.07 235.902 1468.33 235.819 1461.52 235.819C1453.57 235.819 1446.18 235.902 1439.37 236.069C1432.72 236.069 1427.28 236.237 1423.06 236.57V231.563C1428.09 231.23 1431.9 230.562 1434.5 229.561C1437.26 228.559 1439.04 226.557 1439.86 223.553C1440.83 220.549 1441.32 216.042 1441.32 210.034V85.8662C1441.32 79.6912 1440.83 75.1848 1439.86 72.3477C1439.04 69.3438 1437.26 67.3412 1434.5 66.3398C1431.9 65.1716 1428.09 64.5038 1423.06 64.3369V59.3301C1427.28 59.497 1432.72 59.6642 1439.37 59.8311C1446.18 59.9979 1453.57 60.0811 1461.52 60.0811C1468.33 60.0811 1475.07 59.9979 1481.72 59.8311C1488.37 59.6642 1493.89 59.497 1498.27 59.3301V64.3369C1493.08 64.5038 1489.18 65.1716 1486.59 66.3398C1483.99 67.3412 1482.21 69.3438 1481.23 72.3477C1480.42 75.1848 1480.02 79.6912 1480.02 85.8662V202.588L1549.3 81.7354C1549.12 77.638 1548.67 74.5086 1547.92 72.3477C1546.95 69.3438 1545.17 67.3412 1542.57 66.3398C1539.97 65.1716 1536.16 64.5038 1531.13 64.3369V59.3301C1535.35 59.497 1540.78 59.6642 1547.44 59.8311C1554.25 59.9979 1561.07 60.0811 1567.88 60.0811C1575.67 60.0811 1582.97 59.9979 1589.79 59.8311C1596.6 59.6642 1602.12 59.497 1606.34 59.3301V64.3369ZM1806 311.019C1795.99 311.313 1788.34 312.49 1783.04 314.552C1778.03 316.319 1774.65 319.853 1772.88 325.153C1771.11 330.159 1770.23 338.11 1770.23 349.006V568.096C1770.23 578.697 1771.11 586.648 1772.88 591.948C1774.65 597.249 1778.03 600.783 1783.04 602.55C1788.34 604.317 1795.99 605.494 1806 606.083V614.917C1798.05 614.328 1787.6 614.034 1774.65 614.034C1761.99 613.74 1748.44 613.592 1734.02 613.592C1720.18 613.592 1706.64 613.74 1693.39 614.034C1680.14 614.034 1669.25 614.328 1660.71 614.917V606.083C1671.6 605.494 1679.85 604.317 1685.44 602.55C1691.33 600.783 1695.16 597.249 1696.92 591.948C1698.98 586.648 1700.01 578.697 1700.01 568.096V349.006C1700.01 338.11 1698.98 330.011 1696.92 324.711C1695.16 319.411 1691.92 315.877 1687.21 314.11C1682.79 312.049 1676.9 311.019 1669.54 311.019H1666.45C1659.39 311.019 1653.64 312.049 1649.23 314.11C1645.11 315.877 1642.02 319.558 1639.96 325.153C1638.19 330.454 1636.86 338.405 1635.98 349.006C1634.51 366.38 1633.04 385.079 1631.56 405.104C1630.39 425.128 1628.77 445.299 1626.71 465.618C1624.65 485.937 1621.7 505.372 1617.88 523.924C1614.34 542.476 1609.48 559.114 1603.3 573.838C1597.12 588.267 1589.17 599.752 1579.46 608.292C1569.74 616.832 1557.82 621.102 1543.68 621.102C1530.44 621.102 1518.95 617.42 1509.24 610.059C1499.82 602.402 1495.11 592.389 1495.11 580.021C1495.11 568.537 1498.93 559.409 1506.59 552.636C1514.54 545.863 1524.11 542.477 1535.29 542.477C1545.01 542.477 1552.81 544.979 1558.7 549.985C1564.88 554.697 1567.97 561.323 1567.97 569.862C1567.97 580.169 1564.59 588.856 1557.82 595.924C1551.34 602.697 1542.95 607.555 1532.64 610.5C1534.12 611.383 1535.74 611.972 1537.5 612.267C1539.56 612.561 1541.62 612.709 1543.68 612.709C1557.23 612.709 1568.56 607.556 1577.69 597.249C1586.82 586.942 1594.17 572.955 1599.77 555.286C1605.66 537.323 1610.22 517.004 1613.46 494.329C1616.7 471.655 1619.2 447.95 1620.97 423.214C1622.73 398.183 1624.35 373.447 1625.82 349.006C1626.71 338.699 1626.27 330.895 1624.5 325.595C1623.03 320.294 1619.49 316.613 1613.9 314.552C1608.6 312.49 1600.65 311.313 1590.05 311.019V302.184C1596.24 302.478 1603.6 302.773 1612.13 303.067C1620.67 303.362 1628.47 303.509 1635.54 303.509C1642.31 303.509 1648.79 303.362 1654.97 303.067C1661.45 302.478 1667.92 302.184 1674.4 302.184C1685.59 302.184 1695.75 302.478 1704.87 303.067C1714 303.362 1724.89 303.509 1737.55 303.509H1761.4C1770.23 303.214 1778.47 303.067 1786.13 303.067C1794.08 302.773 1800.7 302.478 1806 302.184V311.019ZM1806 64.3369C1800.81 64.5038 1796.91 65.1717 1794.32 66.3398C1791.72 67.3412 1789.94 69.3437 1788.96 72.3477C1788.15 75.1848 1787.75 79.6912 1787.75 85.8662V210.034C1787.75 216.042 1788.15 220.549 1788.96 223.553C1789.94 226.557 1791.72 228.559 1794.32 229.561C1796.91 230.562 1800.81 231.23 1806 231.563V236.57C1801.78 236.237 1796.26 236.069 1789.45 236.069C1782.63 235.902 1775.33 235.819 1767.54 235.819C1760.73 235.819 1753.91 235.902 1747.1 236.069C1740.44 236.069 1735.01 236.237 1730.79 236.57V231.563C1735.82 231.23 1739.63 230.562 1742.23 229.561C1744.83 228.559 1746.61 226.557 1747.58 223.553C1748.56 220.549 1749.04 216.042 1749.04 210.034V92.7568L1679.72 213.366C1679.85 217.737 1680.24 221.132 1680.89 223.553C1681.87 226.557 1683.65 228.559 1686.25 229.561C1688.85 230.562 1692.74 231.23 1697.93 231.563V236.57C1693.55 236.237 1688.03 236.069 1681.38 236.069C1674.73 235.902 1667.99 235.819 1661.18 235.819C1653.23 235.819 1645.85 235.902 1639.03 236.069C1632.38 236.069 1626.94 236.237 1622.72 236.57V231.563C1627.75 231.23 1631.57 230.562 1634.16 229.561C1636.92 228.559 1638.71 226.557 1639.52 223.553C1640.49 220.549 1640.98 216.042 1640.98 210.034V85.8662C1640.98 79.6912 1640.49 75.1848 1639.52 72.3477C1638.71 69.3438 1636.92 67.3412 1634.16 66.3398C1631.57 65.1716 1627.75 64.5038 1622.72 64.3369V59.3301C1626.94 59.497 1632.38 59.6642 1639.03 59.8311C1645.85 59.9979 1653.23 60.0811 1661.18 60.0811C1667.99 60.0811 1674.73 59.9979 1681.38 59.8311C1688.03 59.6642 1693.55 59.497 1697.93 59.3301V64.3369C1692.74 64.5038 1688.85 65.1716 1686.25 66.3398C1683.65 67.3412 1681.87 69.3438 1680.89 72.3477C1680.08 75.1848 1679.68 79.6912 1679.68 85.8662V202.588L1748.96 81.7354C1748.79 77.638 1748.33 74.5086 1747.58 72.3477C1746.61 69.3438 1744.83 67.3412 1742.23 66.3398C1739.63 65.1716 1735.82 64.5038 1730.79 64.3369V59.3301C1735.01 59.497 1740.44 59.6642 1747.1 59.8311C1753.91 59.9979 1760.73 60.0811 1767.54 60.0811C1775.33 60.0811 1782.63 59.9979 1789.45 59.8311C1796.26 59.6642 1801.78 59.497 1806 59.3301V64.3369ZM1771.68 16.5225C1771.68 20.5278 1770.3 24.0321 1767.54 27.0361C1764.95 30.0402 1761.46 32.7114 1757.08 35.0479C1752.53 37.3843 1746.61 39.4699 1739.31 41.3057C1732.01 42.9746 1723.65 43.8096 1714.24 43.8096C1704.83 43.8096 1696.47 42.9745 1689.17 41.3057C1681.87 39.4699 1675.94 37.3844 1671.4 35.0479C1667.18 32.8783 1663.69 30.2911 1660.94 27.2871C1658.34 24.2831 1657.04 20.6947 1657.04 16.5225C1657.04 11.8495 1658.83 7.92779 1662.4 4.75684C1665.97 1.58593 1670.59 2.55593e-05 1676.27 0C1681.79 0 1686.41 1.58588 1690.14 4.75684C1694.04 7.76082 1695.98 11.766 1695.98 16.7725C1695.98 21.1117 1694.44 24.6168 1691.36 27.2871C1688.44 29.9573 1684.95 31.8767 1680.89 33.0449C1684.14 34.38 1687.63 35.5485 1691.36 36.5498C1695.25 37.3842 1699.23 37.968 1703.29 38.3018C1707.34 38.6355 1710.99 38.8027 1714.24 38.8027C1717.65 38.8027 1721.3 38.6355 1725.19 38.3018C1729.09 37.968 1732.98 37.3842 1736.88 36.5498C1740.93 35.5484 1744.42 34.296 1747.34 32.7939C1743.12 31.7926 1739.63 29.9574 1736.88 27.2871C1734.12 24.45 1732.74 20.9447 1732.74 16.7725C1732.74 11.7658 1734.6 7.76085 1738.34 4.75684C1742.07 1.58588 1746.77 0 1752.45 0C1757.97 6.86985e-05 1762.51 1.58595 1766.08 4.75684C1769.81 7.76088 1771.68 11.6827 1771.68 16.5225Z" fill="#3C0303"/>
</svg>
