<svg width="110" height="110" viewBox="0 0 110 110" fill="none" xmlns="http://www.w3.org/2000/svg">
<path d="M91.6669 46.5207C85.2503 43.9999 84.3336 41.4791 84.3336 38.9582C84.3336 36.4374 86.1669 33.9166 88.4586 32.0833C92.3544 28.8749 94.4169 24.0624 94.4169 18.7916C94.4169 8.70831 87.7711 0 76.0836 0C65.3128 0 58.8962 7.33332 57.9795 16.2708C57.9795 17.1875 58.4378 17.875 59.1253 18.3333C67.8336 23.8333 73.1045 33.4583 73.1045 45.1457C73.1045 53.854 69.667 61.6457 63.4795 67.1457C63.0212 67.604 63.0212 68.5207 63.4795 68.979C65.0836 70.1248 68.7503 71.729 71.042 72.8748C71.7295 73.104 72.1878 73.3332 72.8753 73.3332H100.604C105.875 73.3332 110 68.979 110 64.1665V62.7915C110 54.7707 101.292 50.4165 91.6669 46.5207Z" fill="black"/>
<path d="M60.9582 78.3748C53.1665 75.1665 52.0207 72.4165 52.0207 69.4373C52.0207 66.4581 54.3124 63.479 56.8332 61.1873C61.4165 57.2915 63.9373 51.7915 63.9373 45.3749C63.9373 33.4582 56.1457 23.1458 41.9374 23.1458C27.9583 23.1458 19.9375 33.4582 19.9375 45.3749C19.9375 51.7915 22.4583 57.2915 27.0416 61.1873C29.5624 63.479 31.8541 66.4581 31.8541 69.4373C31.8541 72.4165 30.7083 75.3956 22.6874 78.3748C11.2291 82.9581 0 88.2289 0 97.8539V98.5414V100.833C0 105.875 4.12499 110 9.39581 110H72.8748C78.1456 110 82.4998 105.875 82.4998 100.833V98.5414V97.6247C82.4998 88.2289 72.4165 82.9581 60.9582 78.3748Z" fill="black"/>
</svg>
