<svg width="133" height="122" viewBox="0 0 133 122" fill="none" xmlns="http://www.w3.org/2000/svg">
<path d="M129.73 101.302H3.10238C2.15267 101.302 1.51953 101.935 1.51953 102.885V120.296C1.51953 121.246 2.15267 121.879 3.10238 121.879H129.73C130.68 121.879 131.313 121.246 131.313 120.296V102.885C131.313 101.935 130.68 101.302 129.73 101.302ZM128.147 118.713H4.68522V104.468H128.147V118.713Z" fill="black"/>
<path d="M17.3473 98.1365V61.731C17.3473 60.7813 16.7142 60.1482 15.7645 60.1482H6.26742C5.31771 60.1482 4.68457 60.7813 4.68457 61.731V98.1365H7.85026V63.3139H14.1816V98.1365H17.3473Z" fill="black"/>
<path d="M55.3356 98.1365V61.731C55.3356 60.7813 54.7025 60.1482 53.7528 60.1482H44.2557C43.306 60.1482 42.6729 60.7813 42.6729 61.731V98.1365H45.8385V63.3139H52.1699V98.1365H55.3356Z" fill="black"/>
<path d="M91.7419 98.1365V61.731C91.7419 60.7813 91.1087 60.1482 90.159 60.1482H80.6619C79.7122 60.1482 79.0791 60.7813 79.0791 61.731V98.1365H82.2448V63.3139H88.5762V98.1365H91.7419Z" fill="black"/>
<path d="M128.146 98.1365V61.731C128.146 60.7813 127.513 60.1482 126.563 60.1482H117.066C116.117 60.1482 115.483 60.7813 115.483 61.731V98.1365H118.649V63.3139H124.98V98.1365H128.146Z" fill="black"/>
<path d="M132.421 54.2916L112.16 32.1318C111.844 31.8152 111.369 31.6569 111.052 31.6569H91.1083L84.4603 19.7856C84.1437 19.3107 83.6689 18.9941 83.0357 18.9941H82.2443V4.59025C82.2443 2.0577 80.1866 0 77.6541 0H56.7605C54.228 0 52.1703 2.0577 52.1703 4.59025V18.9941H51.3788C50.7457 18.9941 50.2709 19.3107 49.9543 19.7856L43.3063 31.6569H21.7796C21.3048 31.6569 20.9882 31.8152 20.6716 32.1318L0.411234 54.2916C-0.0636196 54.7664 -0.0636178 55.3996 0.0946667 56.0327C0.252951 56.6659 0.886089 56.9824 1.51923 56.9824H131.313C131.946 56.9824 132.579 56.6659 132.737 56.0327C132.895 55.3996 132.895 54.7664 132.421 54.2916ZM55.336 4.59025C55.336 3.79883 55.9691 3.16569 56.7605 3.16569H77.6541C78.4455 3.16569 79.0786 3.79883 79.0786 4.59025V18.9941H55.336V4.59025ZM52.3285 22.1598H53.7531H80.6615H82.086L87.4677 31.6569H46.9469L52.3285 22.1598ZM5.15977 53.8167L22.5711 34.8226H44.256H90.1585H110.261L127.672 53.8167H5.15977Z" fill="black"/>
<path d="M67.9987 4.74854H64.833V10.2885C64.833 10.7633 64.9913 11.2382 65.4661 11.5548L71.7975 16.3033L73.6969 13.7708L67.9987 9.49707V4.74854Z" fill="black"/>
</svg>
