<svg width="1263" height="1361" viewBox="0 0 1263 1361" fill="none" xmlns="http://www.w3.org/2000/svg">
<path fill-rule="evenodd" clip-rule="evenodd" d="M309.5 1195H206V1042.5C206 980.72 309.5 982.131 309.5 1042.5V1195Z" fill="black"/>
<path d="M515.43 1293.5H747.43V1107C747.43 987.5 515.43 984 515.43 1107V1293.5Z" fill="black"/>
<path d="M951.502 1195H1055V1042.5C1055 982.131 951.502 980.72 951.502 1042.5V1195Z" fill="black"/>
<path d="M623.43 801.5V842C623.43 851.5 623.43 851.5 631.93 851.5C639.927 851.5 639.927 851 639.927 842.008V842L639.93 801.5C639.93 792 639.93 792 631.43 792C623.43 792 623.43 792 623.43 801.5Z" fill="black"/>
<path d="M499 664.5H458.5C449 664.5 449 664.5 449 673C449 680.998 449.5 680.998 458.492 680.998H458.5L499 681C508.5 681 508.5 681 508.5 672.5C508.5 664.5 508.5 664.5 499 664.5Z" fill="black"/>
<path d="M623.43 801.5V842C623.43 851.5 623.43 851.5 631.93 851.5C639.927 851.5 639.927 851 639.927 842.008V842L639.93 801.5C639.93 792 639.93 792 631.43 792C623.43 792 623.43 792 623.43 801.5Z" fill="black"/>
<path d="M499 664.5H458.5C449 664.5 449 664.5 449 673C449 680.998 449.5 680.998 458.492 680.998H458.5L499 681C508.5 681 508.5 681 508.5 672.5C508.5 664.5 508.5 664.5 499 664.5Z" fill="black"/>
<path d="M535.607 765.916L506.97 794.554C500.252 801.272 500.252 801.272 506.262 807.282C511.918 812.937 512.271 812.584 518.629 806.226L518.635 806.22L547.275 777.584C553.992 770.866 553.992 770.866 547.982 764.856C542.325 759.199 542.325 759.199 535.607 765.916Z" fill="black"/>
<path d="M748.019 541.714L719.382 570.352C712.664 577.069 712.664 577.069 718.674 583.08C724.33 588.735 724.683 588.381 731.041 582.023L731.047 582.017L759.687 553.381C766.404 546.664 766.404 546.664 760.394 540.653C754.737 534.996 754.737 534.996 748.019 541.714Z" fill="black"/>
<path d="M542.958 570.705L514.321 542.067C507.603 535.35 507.603 535.35 501.593 541.36C495.938 547.015 496.291 547.369 502.649 553.727L502.655 553.733L531.291 582.373C538.009 589.09 538.009 589.09 544.019 583.08C549.676 577.423 549.676 577.423 542.958 570.705Z" fill="black"/>
<path d="M751.605 794.201L722.967 765.563C716.249 758.845 716.249 758.845 710.239 764.856C704.584 770.511 704.937 770.864 711.295 777.223L711.301 777.228L739.937 805.868C746.655 812.585 746.655 812.585 752.665 806.575C758.322 800.918 758.322 800.918 751.605 794.201Z" fill="black"/>
<path fill-rule="evenodd" clip-rule="evenodd" d="M57.9292 1293.5V837.5C-8.07077 837.5 -3.9041 813.5 6.42923 801.5L112.93 648.5H318.93V530C268.93 530 263.763 497.667 267.43 481.5L588.93 231.5V178.5L549.93 128.5L623.43 0.5H639.002L712.502 128.5L673.502 178.5V231.5L995.002 481.5C998.669 497.667 993.502 530 943.502 530V648.5H1149.5L1256 801.5C1266.34 813.5 1270.5 837.5 1204.5 837.5V1293.5C1221.67 1293.5 1256 1306.9 1256 1360.5H639.002H623.43H6.42923C6.42923 1306.9 40.7626 1293.5 57.9292 1293.5ZM440.93 673.5C440.93 770 521.93 861 623.43 861H639.002C740.502 861 821.502 770 821.502 673.5C821.502 562.5 723.502 481.5 639.002 481.5H623.43C538.93 481.5 440.93 562.5 440.93 673.5ZM350.5 1229H167.5V1042.5C167.5 937 350.5 937 350.5 1042.5V1229ZM1096 1229H913.002V1042.5C913.002 937 1096 937 1096 1042.5V1229ZM515.43 1293.5H476.93V1107C476.93 934 788.43 927.5 788.43 1107V1293.5H747.43H515.43Z" fill="black"/>
<path d="M623.427 593L623.43 603.733V673.5V679.414C623.43 680.5 624 680.998 625.5 680.998H690.539H690.547L722.967 681C732.467 681 732.467 672.5 732.467 672.5C732.467 672.5 732.467 664.5 722.967 664.5H690.547H642.5C640 664.5 639.927 664.5 639.927 662.039V603.741V603.733V593C639.927 583.5 631.427 583.5 631.427 583.5C631.427 583.5 623.427 583.5 623.427 593Z" fill="black"/>
<path d="M623.93 500.5V541C623.93 550.5 623.93 550.5 632.43 550.5C640.427 550.5 640.427 550 640.427 541.008V541L640.43 500.5C640.43 491 640.43 491 631.93 491C623.93 491 623.93 491 623.93 500.5Z" fill="black"/>
<path d="M623.93 500.5V541C623.93 550.5 623.93 550.5 632.43 550.5C640.427 550.5 640.427 550 640.427 541.008V541L640.43 500.5C640.43 491 640.43 491 631.93 491C623.93 491 623.93 491 623.93 500.5Z" fill="black"/>
<path d="M803.605 665H763.105C753.605 665 753.605 665 753.605 673.5C753.605 681.498 754.104 681.498 763.096 681.498H763.105L803.605 681.5C813.105 681.5 813.105 681.5 813.105 673C813.105 665 813.105 665 803.605 665Z" fill="black"/>
<path d="M803.605 665H763.105C753.605 665 753.605 665 753.605 673.5C753.605 681.498 754.104 681.498 763.096 681.498H763.105L803.605 681.5C813.105 681.5 813.105 681.5 813.105 673C813.105 665 813.105 665 803.605 665Z" fill="black"/>
<path fill-rule="evenodd" clip-rule="evenodd" d="M623.43 861C521.93 861 440.93 770 440.93 673.5C440.93 562.5 538.93 481.5 623.43 481.5H639.002C723.502 481.5 821.502 562.5 821.502 673.5C821.502 770 740.502 861 639.002 861H623.43ZM623.43 842V801.5C623.43 792 623.43 792 631.43 792C639.93 792 639.93 792 639.93 801.5L639.927 842V842.008C639.927 851 639.927 851.5 631.93 851.5C623.43 851.5 623.43 851.5 623.43 842ZM623.43 603.733L623.427 593C623.427 583.5 631.427 583.5 631.427 583.5C631.427 583.5 639.927 583.5 639.927 593V603.733V603.741V662.039C639.927 664.5 640 664.5 642.5 664.5H690.547H722.967C732.467 664.5 732.467 672.5 732.467 672.5C732.467 672.5 732.467 681 722.967 681L690.547 680.998H690.539H625.5C624 680.998 623.43 680.5 623.43 679.414V673.5V603.733ZM458.5 664.5H499C508.5 664.5 508.5 664.5 508.5 672.5C508.5 681 508.5 681 499 681L458.5 680.998H458.492C449.5 680.998 449 680.998 449 673C449 664.5 449 664.5 458.5 664.5ZM506.97 794.554L535.607 765.916C542.325 759.199 542.325 759.199 547.982 764.856C553.992 770.866 553.992 770.866 547.275 777.584L518.635 806.22L518.629 806.226C512.271 812.584 511.918 812.937 506.262 807.282C500.252 801.272 500.252 801.272 506.97 794.554ZM719.382 570.352L748.019 541.714C754.737 534.996 754.737 534.996 760.394 540.653C766.404 546.664 766.404 546.664 759.687 553.381L731.047 582.017L731.041 582.023C724.683 588.381 724.33 588.735 718.674 583.08C712.664 577.069 712.664 577.069 719.382 570.352ZM514.321 542.067L542.958 570.705C549.676 577.423 549.676 577.423 544.019 583.08C538.009 589.09 538.009 589.09 531.291 582.373L502.655 553.733L502.649 553.727C496.291 547.369 495.938 547.015 501.593 541.36C507.603 535.35 507.603 535.35 514.321 542.067ZM722.967 765.563L751.605 794.201C758.322 800.918 758.322 800.918 752.665 806.575C746.655 812.585 746.655 812.585 739.937 805.868L711.301 777.228L711.295 777.223C704.937 770.864 704.584 770.511 710.239 764.856C716.249 758.845 716.249 758.845 722.967 765.563ZM623.93 541V500.5C623.93 491 623.93 491 631.93 491C640.43 491 640.43 491 640.43 500.5L640.427 541V541.008C640.427 550 640.427 550.5 632.43 550.5C623.93 550.5 623.93 550.5 623.93 541ZM763.105 665H803.605C813.105 665 813.105 665 813.105 673C813.105 681.5 813.105 681.5 803.605 681.5L763.105 681.498H763.096C754.104 681.498 753.605 681.498 753.605 673.5C753.605 665 753.605 665 763.105 665Z" fill="white"/>
<path fill-rule="evenodd" clip-rule="evenodd" d="M913.002 1229H1096V1042.5C1096 937 913.002 937 913.002 1042.5V1229ZM1055 1195H951.502V1042.5C951.502 980.72 1055 982.131 1055 1042.5V1195Z" fill="white"/>
<path d="M476.93 1293.5H515.43V1107C515.43 984 747.43 987.5 747.43 1107V1293.5H788.43V1107C788.43 927.5 476.93 934 476.93 1107V1293.5Z" fill="white"/>
<path fill-rule="evenodd" clip-rule="evenodd" d="M167.5 1229H350.5V1042.5C350.5 937 167.5 937 167.5 1042.5V1229ZM309.5 1195H206V1042.5C206 980.72 309.5 982.131 309.5 1042.5V1195Z" fill="white"/>
<path d="M476.93 1293.5H788.43M476.93 1293.5V1107C476.93 934 788.43 927.5 788.43 1107V1293.5M476.93 1293.5H515.43M788.43 1293.5H747.43M515.43 1293.5H747.43M515.43 1293.5V1107C515.43 984 747.43 987.5 747.43 1107V1293.5M639.927 842L639.93 801.5C639.93 792 639.93 792 631.43 792C623.43 792 623.43 792 623.43 801.5V842C623.43 851.5 623.43 851.5 631.93 851.5C639.927 851.5 639.927 851 639.927 842.008M639.927 842V842.008M639.927 842C639.927 842.003 639.927 842.005 639.927 842.008M639.927 603.733V593C639.927 583.5 631.427 583.5 631.427 583.5C631.427 583.5 623.427 583.5 623.427 593L623.43 603.733V673.5V679.414C623.43 680.5 624 680.998 625.5 680.998M639.927 603.733V603.741M639.927 603.733C639.927 603.736 639.927 603.738 639.927 603.741M639.927 603.733V662.039M639.927 603.741V662.039M690.547 680.998L722.967 681C732.467 681 732.467 672.5 732.467 672.5C732.467 672.5 732.467 664.5 722.967 664.5H690.547H642.5C640 664.5 639.927 664.5 639.927 662.039M690.547 680.998H690.539H625.5M690.547 680.998H625.5M518.635 806.22L547.275 777.584C553.992 770.866 553.992 770.866 547.982 764.856C542.325 759.199 542.325 759.199 535.607 765.916L506.97 794.554C500.252 801.272 500.252 801.272 506.262 807.282C511.918 812.937 512.271 812.584 518.629 806.226M518.635 806.22L518.629 806.226M518.635 806.22C518.633 806.222 518.631 806.224 518.629 806.226M731.047 582.017L759.687 553.381C766.404 546.664 766.404 546.664 760.394 540.653C754.737 534.996 754.737 534.996 748.019 541.714L719.382 570.352C712.664 577.069 712.664 577.069 718.674 583.08C724.33 588.735 724.683 588.381 731.041 582.023M731.047 582.017L731.041 582.023M731.047 582.017C731.045 582.019 731.043 582.021 731.041 582.023M640.427 541L640.43 500.5C640.43 491 640.43 491 631.93 491C623.93 491 623.93 491 623.93 500.5V541C623.93 550.5 623.93 550.5 632.43 550.5C640.427 550.5 640.427 550 640.427 541.008M640.427 541V541.008M640.427 541C640.427 541.003 640.427 541.005 640.427 541.008M57.9292 1293.5V837.5C-8.07077 837.5 -3.9041 813.5 6.42923 801.5L112.93 648.5H318.93V530C268.93 530 263.763 497.667 267.43 481.5L588.93 231.5V178.5L549.93 128.5L623.43 0.5H639.002L712.502 128.5L673.502 178.5V231.5L995.002 481.5C998.669 497.667 993.502 530 943.502 530V648.5H1149.5L1256 801.5C1266.34 813.5 1270.5 837.5 1204.5 837.5V1293.5C1221.67 1293.5 1256 1306.9 1256 1360.5H639.002H623.43H6.42923C6.42923 1306.9 40.7626 1293.5 57.9292 1293.5ZM623.43 481.5C538.93 481.5 440.93 562.5 440.93 673.5C440.93 770 521.93 861 623.43 861H639.002C740.502 861 821.502 770 821.502 673.5C821.502 562.5 723.502 481.5 639.002 481.5H623.43ZM167.5 1229H350.5V1042.5C350.5 937 167.5 937 167.5 1042.5V1229ZM206 1195H309.5V1042.5C309.5 982.131 206 980.72 206 1042.5V1195ZM913.002 1229H1096V1042.5C1096 937 913.002 937 913.002 1042.5V1229ZM951.502 1195H1055V1042.5C1055 982.131 951.502 980.72 951.502 1042.5V1195ZM499 664.5H458.5C449 664.5 449 664.5 449 673C449 680.998 449.5 680.998 458.492 680.998H458.5L499 681C508.5 681 508.5 681 508.5 672.5C508.5 664.5 508.5 664.5 499 664.5ZM542.958 570.705L514.321 542.067C507.603 535.35 507.603 535.35 501.593 541.36C495.938 547.015 496.291 547.369 502.649 553.727L502.655 553.733L531.291 582.373C538.009 589.09 538.009 589.09 544.019 583.08C549.676 577.423 549.676 577.423 542.958 570.705ZM751.605 794.201L722.967 765.563C716.249 758.845 716.249 758.845 710.239 764.856C704.584 770.511 704.937 770.864 711.295 777.223L711.301 777.228L739.937 805.868C746.655 812.585 746.655 812.585 752.665 806.575C758.322 800.918 758.322 800.918 751.605 794.201ZM803.605 665H763.105C753.605 665 753.605 665 753.605 673.5C753.605 681.498 754.104 681.498 763.096 681.498H763.105L803.605 681.5C813.105 681.5 813.105 681.5 813.105 673C813.105 665 813.105 665 803.605 665Z" stroke="black"/>
</svg>
